<svg width="80" height="90" viewBox="0 0 80 90" fill="none" xmlns="http://www.w3.org/2000/svg">
<path d="M1.13509 88.2367C0.882994 88.275 0.709651 88.5104 0.747916 88.7625C0.786179 89.0146 1.02156 89.1879 1.27365 89.1497L1.13509 88.2367ZM79.3607 2.55642C79.4577 2.32064 79.3452 2.05082 79.1095 1.95376L75.2671 0.372147C75.0313 0.27509 74.7615 0.387555 74.6644 0.623339C74.5674 0.859128 74.6798 1.12895 74.9156 1.22601L78.3311 2.63188L76.9252 6.04731C76.8281 6.2831 76.9406 6.55292 77.1764 6.64998C77.4122 6.74703 77.682 6.63457 77.779 6.39878L79.3607 2.55642ZM8.85201 87.5125C9.09693 87.4415 9.23797 87.1855 9.16704 86.9406C9.09612 86.6957 8.84007 86.5546 8.59516 86.6256L8.85201 87.5125ZM22.0109 79.882C21.8122 80.0418 21.7807 80.3325 21.9406 80.5311C22.1004 80.7298 22.391 80.7613 22.5897 80.6014L22.0109 79.882ZM32.255 68.6286C32.3762 68.4042 32.2926 68.1241 32.0683 68.0029C31.8439 67.8817 31.5638 67.9653 31.4426 68.1896L32.255 68.6286ZM37.3155 54.1344C37.2313 54.3751 37.3582 54.6385 37.5989 54.7226C37.8396 54.8068 38.1029 54.6799 38.1871 54.4392L37.3155 54.1344ZM43.3328 40.0352C43.4268 39.7982 43.3109 39.5299 43.0739 39.4358C42.8369 39.3418 42.5686 39.4577 42.4745 39.6947L43.3328 40.0352ZM49.3157 25.9213C49.1793 26.1367 49.2433 26.4219 49.4587 26.5583C49.6741 26.6948 49.9593 26.6307 50.0958 26.4153L49.3157 25.9213ZM59.7981 14.787C59.9864 14.6151 59.9997 14.3231 59.8278 14.1348C59.6559 13.9465 59.3639 13.9332 59.1756 14.1051L59.7981 14.787ZM71.761 5.27212C71.5365 5.39296 71.4524 5.67293 71.5732 5.89746C71.6941 6.12199 71.974 6.20605 72.1986 6.08521L71.761 5.27212ZM1.27365 89.1497C4.01388 88.7337 6.53216 88.1843 8.85201 87.5125L8.59516 86.6256C6.31759 87.2851 3.83909 87.8263 1.13509 88.2367L1.27365 89.1497ZM22.5897 80.6014C26.7624 77.2443 29.8057 73.1614 32.255 68.6286L31.4426 68.1896C29.036 72.6434 26.0651 76.6202 22.0109 79.882L22.5897 80.6014ZM38.1871 54.4392C39.8328 49.733 41.4108 44.8795 43.3328 40.0352L42.4745 39.6947C40.5432 44.5627 38.9524 49.4533 37.3155 54.1344L38.1871 54.4392ZM50.0958 26.4153C52.6793 22.3363 55.822 18.4167 59.7981 14.787L59.1756 14.1051C55.1323 17.796 51.9382 21.7808 49.3157 25.9213L50.0958 26.4153ZM72.1986 6.08521C74.3415 4.93194 76.6406 3.83665 79.1113 2.80684L78.7561 1.95454C76.2585 2.99556 73.9318 4.10383 71.761 5.27212L72.1986 6.08521Z" fill="#333333"/>
</svg>
