<svg width="92" height="77" viewBox="0 0 92 77" fill="none" xmlns="http://www.w3.org/2000/svg">
<path d="M45.4069 33.5424L45.8146 33.3257L45.4069 33.5424ZM90.8326 74.3231C91.0409 74.1761 91.0907 73.8881 90.9437 73.6797L88.5486 70.2843C88.4016 70.076 88.1136 70.0262 87.9052 70.1732C87.6968 70.3202 87.6471 70.6082 87.7941 70.8166L89.923 73.8347L86.9049 75.9637C86.6966 76.1107 86.6468 76.3987 86.7938 76.6071C86.9408 76.8154 87.2288 76.8652 87.4372 76.7182L90.8326 74.3231ZM8.17343 1.72516C8.42577 1.76179 8.66003 1.58694 8.69666 1.3346C8.7333 1.08227 8.55844 0.84801 8.30611 0.811373L8.17343 1.72516ZM22.016 6.00068C21.7984 5.86771 21.5143 5.9363 21.3813 6.15386C21.2483 6.37143 21.3169 6.65559 21.5345 6.78856L22.016 6.00068ZM32.614 15.98C32.788 16.1664 33.0801 16.1764 33.2665 16.0024C33.4529 15.8284 33.4629 15.5363 33.289 15.3499L32.614 15.98ZM42.1475 26.9806C42.0117 26.7648 41.7267 26.7 41.5108 26.8358C41.295 26.9716 41.2302 27.2567 41.366 27.4725L42.1475 26.9806ZM48.8717 40.6717C49.0016 40.8911 49.2848 40.9637 49.5042 40.8338C49.7236 40.7039 49.7962 40.4207 49.6663 40.2013L48.8717 40.6717ZM58.4713 53.2206C58.3138 53.02 58.0236 52.9851 57.823 53.1425C57.6225 53.3 57.5875 53.5902 57.745 53.7907L58.4713 53.2206ZM68.7683 65.2043C68.9669 65.3642 69.2575 65.3328 69.4174 65.1343C69.5773 64.9357 69.546 64.645 69.3474 64.4851L68.7683 65.2043ZM82.9802 71.8743C82.736 71.801 82.4786 71.9396 82.4053 72.1838C82.332 72.428 82.4706 72.6854 82.7148 72.7587L82.9802 71.8743ZM1.09888 1.81355C2.88747 1.42139 5.30824 1.30915 8.17343 1.72516L8.30611 0.811373C5.3499 0.382156 2.8155 0.491872 0.901122 0.91161L1.09888 1.81355ZM21.5345 6.78856C25.1161 8.97747 28.8683 11.9675 32.614 15.98L33.289 15.3499C29.4892 11.2795 25.6725 8.23538 22.016 6.00068L21.5345 6.78856ZM41.366 27.4725C42.5962 29.4272 43.8096 31.5198 44.9992 33.759L45.8146 33.3257C44.6148 31.0674 43.3902 28.9552 42.1475 26.9806L41.366 27.4725ZM44.9992 33.759C46.303 36.2132 47.5944 38.5141 48.8717 40.6717L49.6663 40.2013C48.3966 38.0566 47.1121 35.7681 45.8146 33.3257L44.9992 33.759ZM57.745 53.7907C61.6193 58.7262 65.3108 62.4199 68.7683 65.2043L69.3474 64.4851C65.951 61.7499 62.3078 58.1079 58.4713 53.2206L57.745 53.7907ZM82.7148 72.7587C85.8013 73.6851 88.439 74.0469 90.4878 74.4008L90.645 73.4909C88.5656 73.1317 85.9991 72.7804 82.9802 71.8743L82.7148 72.7587Z" fill="#333333"/>
</svg>
