<svg width="163" height="56" viewBox="0 0 163 56" fill="none" xmlns="http://www.w3.org/2000/svg">
<path fill-rule="evenodd" clip-rule="evenodd" d="M152.767 37.6084C152.767 36.507 153.632 35.6128 154.697 35.6128C155.763 35.6128 156.627 36.507 156.627 37.6084V37.6221V52.2212L156.592 52.8553C155.991 54.8381 153.959 54.6556 153.959 54.6556C152.703 54.7046 152.09 53.7859 152.09 53.7859L146.842 44.0495C146.788 43.9582 146.63 44.0721 146.624 44.1673V52.8553C146.624 53.9841 145.745 54.9029 144.651 54.9029C143.56 54.9029 142.67 53.9841 142.67 52.8553V38.5409C142.67 38.109 142.884 37.7762 142.884 37.7762C143.057 37.4454 143.351 36.7102 144.452 36.2332C145.511 35.7777 147.046 36.3244 147.592 37.254C149.394 40.3116 150.896 43.4498 152.605 46.4358C152.781 46.4672 152.767 46.1697 152.767 46.1697V37.6084Z" fill="#E2001A"/>
<path fill-rule="evenodd" clip-rule="evenodd" d="M160.839 37.0465H161.287C161.405 37.0465 161.767 37.0465 161.767 36.736C161.767 36.4609 161.444 36.4609 161.329 36.4609H160.839V37.0465ZM161.364 36.2614C161.473 36.2614 161.988 36.2614 161.988 36.7238C161.988 36.9111 161.899 37.0827 161.661 37.1359V37.1438C161.902 37.2098 161.949 37.3499 161.958 37.5678C161.972 37.8537 161.972 37.8892 162.012 37.9592H161.791C161.758 37.9089 161.746 37.8586 161.738 37.6447C161.738 37.3765 161.69 37.2404 161.282 37.2404H160.838V37.9592H160.616V36.2614H161.364ZM159.952 37.0977C159.952 37.7997 160.536 38.3824 161.28 38.3824C162.009 38.3824 162.606 37.8115 162.606 37.0977C162.606 36.4016 162.031 35.811 161.28 35.811C160.524 35.811 159.952 36.4016 159.952 37.0977ZM162.83 37.0976C162.83 37.9209 162.128 38.5805 161.282 38.5805C160.414 38.5805 159.729 37.9091 159.729 37.0976C159.729 36.2892 160.41 35.6128 161.282 35.6128C162.144 35.6128 162.83 36.2852 162.83 37.0976Z" fill="#E2001A"/>
<path fill-rule="evenodd" clip-rule="evenodd" d="M35.3992 35.8644C36.44 36.2571 36.9318 37.061 37.618 37.7593C38.7919 38.966 39.8036 40.189 41.0856 41.3024C41.1667 41.3725 41.3986 41.3725 41.46 41.3024C43.0809 39.4187 44.389 37.5136 46.3759 35.9902C47.4646 35.159 49.2353 35.7659 49.5711 37.1736C49.7354 37.8557 49.4963 38.489 49.1188 38.9772C47.2234 41.4171 45.383 43.4328 43.4813 45.7266C43.4282 48.2619 43.4813 50.3973 43.4813 53.0524C43.4813 54.0999 42.2086 54.9189 41.3518 54.9027C40.7342 54.9017 39.9814 54.6378 39.605 53.9608C39.4231 53.6452 39.29 53.2696 39.2775 52.9651C39.1798 50.5638 39.0675 48.1675 39.0727 45.7631C36.3443 42.3651 32.7332 39.3791 32.5825 38.1277C32.414 36.6976 33.5047 35.1508 35.3992 35.8644Z" fill="#E2001A"/>
<path fill-rule="evenodd" clip-rule="evenodd" d="M67.9325 50.6483V37.8717C67.9194 34.6105 63.4343 35.1429 63.5858 37.797V53.6957C63.5858 53.6957 63.5858 55.0187 65.1825 54.8947H72.2741C72.2741 54.8947 74.3152 54.9401 74.4374 52.9273C74.4374 52.9273 74.4202 51.1737 72.7508 50.8056L68.1506 50.7884C68.1506 50.7884 67.8547 50.7168 67.9244 50.4052" fill="#E2001A"/>
<path fill-rule="evenodd" clip-rule="evenodd" d="M56.2984 46.9467C56.3183 46.9478 57.3022 46.979 57.3066 46.9467C57.3386 45.9426 57.3066 44.7461 57.2867 43.7762C56.4619 44.7642 55.7883 45.6405 54.9955 46.6114C54.9204 46.701 54.8729 46.9155 55.1026 46.9296C55.5255 46.9528 56.0754 46.9155 56.2984 46.9467ZM62.0305 52.8001C61.8351 54.5606 60.4261 54.9393 59.5726 54.8859C58.9564 54.7812 57.7882 54.5828 57.5187 53.3299C57.3476 52.5282 57.3089 51.3045 57.2869 51.1232C57.2813 51.0769 51.5406 51.1081 51.5328 51.1081C50.5291 52.2996 49.5452 53.7428 48.6221 54.5546C48.2887 54.8457 47.794 54.9222 47.4285 54.899C46.5285 54.8487 45.548 54.4216 45.2101 53.5817C45.0036 53.0761 44.8049 52.4859 45.1958 51.9672C47.8967 48.426 50.3281 45.4629 53.1163 42.0204C54.6555 40.1179 56.027 38.4329 57.6005 36.5999C58.412 35.6592 59.1209 35.625 59.8564 35.6129C59.81 35.6129 61.8517 35.5736 62.0261 37.2878V52.7921" fill="#E2001A"/>
<path fill-rule="evenodd" clip-rule="evenodd" d="M24.074 40.0831C21.0858 40.0831 18.6597 42.4004 18.6597 45.2629C18.6597 48.1214 21.0858 50.4387 24.074 50.4387C27.0643 50.4387 29.4841 48.1214 29.4841 45.2629C29.4841 42.4004 27.0643 40.0831 24.074 40.0831ZM34.1174 45.2634C34.1174 50.5879 29.6066 54.9029 24.0348 54.9029C18.4694 54.9029 13.9575 50.5879 13.9575 45.2634C13.9575 39.9339 18.4694 35.6128 24.0348 35.6128C29.6066 35.6128 34.1174 39.9339 34.1174 45.2634Z" fill="#E2001A"/>
<path fill-rule="evenodd" clip-rule="evenodd" d="M80.7209 44.0301C81.1565 40.5901 83.4797 37.678 86.57 36.3758C90.2968 34.7975 94.7527 35.6813 97.3498 38.9013C97.911 39.5969 97.7411 40.5195 97.2211 41.2192C96.6763 41.9424 95.8061 42.3157 95.0256 42.0191C93.7054 41.5066 92.8002 40.3364 91.3348 40.0296C88.3135 39.4087 85.4754 41.4033 85.0398 44.3226C84.6093 47.2215 86.2735 50.0027 89.2434 50.5612C91.3235 50.952 92.9567 49.836 94.6703 48.6392C95.4818 48.0715 96.839 48.3569 97.3467 49.3686C97.6494 49.9762 97.876 50.6298 97.5032 51.2834C96.1058 53.7383 93.2626 54.6211 90.6366 54.8707C88.6214 55.064 86.7801 54.3674 85.0573 53.3251C81.8948 51.4113 80.2451 47.7647 80.7209 44.0301Z" fill="#E2001A"/>
<path fill-rule="evenodd" clip-rule="evenodd" d="M106.177 46.9287C106.407 46.9206 106.358 46.7051 106.281 46.6114C105.488 45.6416 104.812 44.7654 103.991 43.7775C103.968 44.7473 103.936 45.9427 103.976 46.9468C103.976 46.979 104.954 46.9468 104.98 46.9448C105.197 46.9146 105.757 46.9518 106.177 46.9287ZM99.2485 52.792V37.2867C99.4208 35.5736 101.47 35.6129 101.417 35.6129C102.156 35.626 102.865 35.6602 103.673 36.6008C105.254 38.4348 106.618 40.1217 108.163 42.0221C110.953 45.4664 113.381 48.4272 116.083 51.9712C116.476 52.4859 116.273 53.077 116.069 53.5846C115.731 54.4205 114.75 54.8485 113.848 54.8989C113.49 54.923 112.991 54.8425 112.659 54.5565C111.737 53.7437 110.751 52.3005 109.745 51.1091C109.738 51.1091 103.998 51.0749 103.991 51.1222C103.968 51.3045 103.929 52.5271 103.759 53.3298C103.488 54.5786 102.32 54.7841 101.707 54.8848C101.617 54.9019 101.831 54.8737 101.709 54.8828C100.85 54.9351 99.4451 54.5595 99.2485 52.7991" fill="#E2001A"/>
<path fill-rule="evenodd" clip-rule="evenodd" d="M6.58419 44.0917C7.87093 44.0917 8.91454 43.176 8.91454 42.0407C8.91454 40.9074 7.87093 39.9876 6.58419 39.9876C5.29532 39.9876 4.25277 40.9074 4.25277 42.0407C4.25277 43.176 5.29532 44.0917 6.58419 44.0917ZM1.74927 37.2909C3.01478 36.2982 3.65178 35.9097 5.66789 35.6547C7.37292 35.4391 8.86563 36.1222 9.08327 36.192C11.764 37.049 13.5762 39.9905 13.2163 42.9027C13.004 44.634 11.9264 46.1973 10.5866 47.3265C11.8808 50.0555 14.3003 51.8344 13.916 53.1862C13.6506 54.1202 13.3788 54.362 12.5156 54.7202C11.9604 54.9489 11.162 54.8892 10.7034 54.5138C8.45582 52.6935 7.271 50.0616 5.37805 48.1785C4.91198 47.7171 4.70283 47.9225 4.70283 48.1735C4.70708 50.3814 4.72725 52.0206 4.60516 53.1002C4.53403 53.7468 3.89596 54.4916 3.4575 54.698C2.24826 55.2757 0.611166 54.5776 0.399895 53.2844C0.35849 53.0527 0.0219411 52.053 0.00283111 47.4945C-0.00353889 45.238 0.00283111 44.7443 0.00283111 41.1612C0.00283111 39.6981 0.729011 38.0892 1.74927 37.2909Z" fill="#E2001A"/>
<mask id="mask0_160_1716" style="mask-type:alpha" maskUnits="userSpaceOnUse" x="117" y="35" width="15" height="20">
<path fill-rule="evenodd" clip-rule="evenodd" d="M117.858 35.6128H131.815V54.9029H117.858V35.6128Z" fill="white"/>
</mask>
<g mask="url(#mask0_160_1716)">
<path fill-rule="evenodd" clip-rule="evenodd" d="M127.954 37.6071C127.954 36.5068 128.817 35.6128 129.885 35.6128C130.948 35.6128 131.815 36.5068 131.815 37.6071V37.6208V52.2207L131.777 52.8549C131.176 54.8384 129.144 54.6547 129.144 54.6547C127.886 54.7026 127.278 53.7851 127.278 53.7851L122.024 44.0492C121.973 43.9573 121.81 44.0707 121.808 44.1654V52.8549C121.808 53.9844 120.926 54.9029 119.831 54.9029C118.738 54.9029 117.858 53.9844 117.858 52.8549V38.5402C117.858 38.1083 118.067 37.7751 118.067 37.7751C118.244 37.4439 118.535 36.7101 119.636 36.2323C120.695 35.7769 122.231 36.3241 122.778 37.2524C124.581 40.3107 126.08 43.4492 127.785 46.4353C127.967 46.4665 127.954 46.1675 127.954 46.1675V37.6071Z" fill="#E2001A"/>
</g>
<mask id="mask1_160_1716" style="mask-type:alpha" maskUnits="userSpaceOnUse" x="134" y="35" width="6" height="20">
<path fill-rule="evenodd" clip-rule="evenodd" d="M134.916 35.6128H139.568V54.9029H134.916V35.6128Z" fill="white"/>
</mask>
<g mask="url(#mask1_160_1716)">
<path fill-rule="evenodd" clip-rule="evenodd" d="M139.568 52.7417C139.568 53.9336 138.524 54.9029 137.24 54.9029C135.957 54.9029 134.916 53.9336 134.916 52.7417V52.7319V37.7692C134.916 36.5763 135.957 35.6128 137.242 35.6128C138.524 35.6128 139.568 36.5763 139.568 37.7692V37.7828V52.7417Z" fill="#E2001A"/>
</g>
<path fill-rule="evenodd" clip-rule="evenodd" d="M60.7201 28.1932C60.1761 28.1932 59.6363 27.9449 59.2847 27.4764C58.6933 26.6855 58.8557 25.5625 59.646 24.9704C64.4006 21.4145 71.6777 19.29 79.1107 19.29H79.1118C86.5179 19.29 93.7767 21.4135 98.5292 24.9704C99.3227 25.5625 99.485 26.6833 98.8894 27.4753C98.3012 28.2662 97.1776 28.4285 96.3841 27.8353C93.1756 25.4346 86.9523 22.8696 79.1128 22.8696H79.1107C71.2358 22.8696 65.0016 25.4346 61.791 27.8364C61.4706 28.0771 61.0954 28.1932 60.7201 28.1932Z" fill="#E2001A"/>
<path fill-rule="evenodd" clip-rule="evenodd" d="M63.193 31.1614C62.858 31.1614 62.523 31.0107 62.2911 30.7229C61.8867 30.2105 61.9582 29.4534 62.4546 29.0317C66.3604 25.719 72.5859 23.7422 79.1117 23.7422C85.6048 23.7422 91.8139 25.718 95.7197 29.0317C96.2172 29.4513 96.2897 30.2094 95.8822 30.7218C95.4736 31.2353 94.7402 31.308 94.2438 30.8873C90.7394 27.9173 85.0828 26.1439 79.1117 26.1439C73.1998 26.1439 67.3818 27.9616 63.9325 30.8884C63.717 31.0729 63.4545 31.1614 63.193 31.1614Z" fill="#E2001A"/>
<path fill-rule="evenodd" clip-rule="evenodd" d="M53.4915 7.41895C52.8038 7.41895 52.1233 7.59768 51.5279 7.93474C50.6385 8.43888 50.0046 9.24608 49.7459 10.2068C49.4924 11.1674 49.6354 12.1641 50.1648 13.0159C50.8504 14.1262 52.1203 14.8246 53.4824 14.8363L53.5098 14.8382C54.1984 14.8372 54.88 14.6585 55.4753 14.3195C56.3658 13.8154 56.9967 13.0101 57.2543 12.0514C57.5129 11.0907 57.3618 10.0921 56.8354 9.24025C56.1427 8.11638 54.8607 7.41895 53.4915 7.41895Z" fill="#E2001A"/>
<path fill-rule="evenodd" clip-rule="evenodd" d="M79.8668 10.3872C77.7277 10.3872 75.9863 12.0519 75.9863 14.0954C75.9863 16.1418 77.7277 17.8065 79.8668 17.8065C82.0028 17.8065 83.7401 16.1418 83.7401 14.0954C83.7401 12.0519 82.0028 10.3872 79.8668 10.3872Z" fill="#E2001A"/>
<path fill-rule="evenodd" clip-rule="evenodd" d="M79.8668 0C77.7277 0 75.9863 1.66492 75.9863 3.70964C75.9863 5.75533 77.7277 7.41927 79.8668 7.41927C82.0028 7.41927 83.7401 5.75533 83.7401 3.70964C83.7401 1.66492 82.0028 0 79.8668 0Z" fill="#E2001A"/>
<path fill-rule="evenodd" clip-rule="evenodd" d="M69.0093 11.8706C68.6645 11.8706 68.3197 11.9143 67.984 12.0008C65.9231 12.5408 64.704 14.5865 65.2699 16.5594C65.7253 18.1495 67.2547 19.2724 68.9911 19.2889L69.0783 19.2899C69.4018 19.2841 69.7223 19.2403 70.0347 19.1578C71.0317 18.8975 71.8613 18.2787 72.3755 17.4181C72.8877 16.5565 73.0185 15.5579 72.7467 14.6031C72.2842 12.9935 70.7497 11.8706 69.0093 11.8706Z" fill="#E2001A"/>
<path fill-rule="evenodd" clip-rule="evenodd" d="M58.1425 14.8389C57.4526 14.8389 56.7728 15.0166 56.1803 15.3547C55.2885 15.8578 54.6544 16.666 54.3977 17.6257C54.1431 18.5864 54.2902 19.5849 54.8147 20.4388C55.5016 21.5471 56.7718 22.2445 58.1364 22.2572L58.1598 22.2581C58.8517 22.2581 59.5274 22.0794 60.1281 21.7423C61.0178 21.2372 61.6509 20.431 61.9056 19.4713C62.1643 18.5116 62.0152 17.514 61.4896 16.6602C60.7936 15.5373 59.5132 14.8389 58.1425 14.8389Z" fill="#E2001A"/>
<path fill-rule="evenodd" clip-rule="evenodd" d="M91.7408 12.0008C91.4057 11.9143 91.0625 11.8706 90.7173 11.8706C88.976 11.8706 87.4388 12.9924 86.9799 14.6017C86.4154 16.5743 87.6328 18.6168 89.6949 19.1568C90.0299 19.2442 90.3772 19.2899 90.7214 19.2899C92.4586 19.2899 93.9998 18.1662 94.4588 16.5578C95.0202 14.5862 93.8029 12.5408 91.7408 12.0008Z" fill="#E2001A"/>
<path fill-rule="evenodd" clip-rule="evenodd" d="M94.8409 1.61645C94.5059 1.52905 94.1659 1.48438 93.8177 1.48438C92.0758 1.48438 90.543 2.60795 90.0812 4.21611C89.5168 6.18843 90.7379 8.23165 92.7975 8.77159C93.1325 8.85899 93.4777 8.90366 93.8208 8.90366C95.5596 8.90366 97.0995 7.78008 97.5593 6.1729C98.1237 4.1996 96.9026 2.15638 94.8409 1.61645Z" fill="#E2001A"/>
<path fill-rule="evenodd" clip-rule="evenodd" d="M101.998 15.3547C101.4 15.0166 100.719 14.8389 100.03 14.8389C98.6634 14.8389 97.3833 15.5373 96.689 16.6602C96.1621 17.514 96.0129 18.5116 96.2697 19.4703C96.5245 20.431 97.159 21.2372 98.0492 21.7423C98.6502 22.0794 99.3293 22.2581 100.023 22.2581C101.386 22.2581 102.666 21.5607 103.361 20.4378C103.887 19.5849 104.034 18.5864 103.778 17.6257C103.52 16.666 102.886 15.8578 101.998 15.3547Z" fill="#E2001A"/>
<path fill-rule="evenodd" clip-rule="evenodd" d="M109.98 10.2068C109.723 9.24705 109.089 8.43888 108.197 7.93474C107.6 7.59768 106.921 7.41895 106.231 7.41895C104.868 7.41895 103.587 8.11736 102.893 9.24025C102.365 10.0941 102.216 11.0926 102.473 12.0514C102.729 13.0101 103.363 13.8163 104.253 14.3205C104.851 14.6595 105.531 14.8382 106.223 14.8382C107.591 14.8382 108.87 14.1408 109.564 13.0169C110.09 12.165 110.238 11.1674 109.98 10.2068Z" fill="#E2001A"/>
<path fill-rule="evenodd" clip-rule="evenodd" d="M65.9106 8.90366C66.2566 8.90366 66.6015 8.85802 66.9332 8.77062C68.9906 8.23165 70.208 6.18746 69.646 4.21514C69.1874 2.60795 67.6505 1.48438 65.9076 1.48438C65.5627 1.48438 65.2167 1.52905 64.884 1.61645C62.8215 2.15638 61.6031 4.1996 62.1671 6.1729C62.6237 7.76358 64.1535 8.88521 65.8883 8.90172L65.9106 8.90366Z" fill="#E2001A"/>
</svg>
