<svg width="32" height="32" viewBox="0 0 32 32" fill="none" xmlns="http://www.w3.org/2000/svg">
<path d="M19.9922 27.0028C20.2353 27.0025 20.4699 26.9136 20.6522 26.7528C20.8523 26.579 20.9753 26.3329 20.994 26.0685C21.0128 25.8041 20.9258 25.5431 20.7522 25.3428L13.2622 16.7628C13.0919 16.5461 12.9993 16.2784 12.9993 16.0028C12.9993 15.7272 13.0919 15.4595 13.2622 15.2428L20.7522 6.66281C20.9272 6.46257 21.0156 6.201 20.9977 5.93564C20.9799 5.67027 20.8574 5.42285 20.6572 5.24781C20.457 5.07277 20.1954 4.98444 19.93 5.00225C19.6647 5.02007 19.4172 5.14257 19.2422 5.34281L11.7522 13.9328C11.2636 14.5119 10.9956 15.2451 10.9956 16.0028C10.9956 16.7605 11.2636 17.4937 11.7522 18.0728L19.2422 26.6628C19.3359 26.7695 19.4513 26.855 19.5806 26.9136C19.7099 26.9722 19.8502 27.0026 19.9922 27.0028V27.0028Z" fill="#767676"/>
</svg>
