<svg width="66" height="115" viewBox="0 0 66 115" fill="none" xmlns="http://www.w3.org/2000/svg">
<path d="M0.79189 113.572C0.563732 113.686 0.471054 113.963 0.584891 114.192C0.698728 114.42 0.975968 114.512 1.20413 114.399L0.79189 113.572ZM65.3629 4.26835C65.519 4.0667 65.482 3.77672 65.2803 3.62068L61.9942 1.0778C61.7925 0.921759 61.5025 0.958732 61.3465 1.16039C61.1904 1.36205 61.2274 1.65202 61.4291 1.80806L64.3501 4.0684L62.0898 6.98945C61.9338 7.1911 61.9707 7.48108 62.1724 7.63712C62.374 7.79317 62.664 7.75619 62.8201 7.55453L65.3629 4.26835ZM7.32844 110.628C7.53181 110.474 7.57198 110.185 7.41817 109.981C7.26436 109.778 6.97482 109.738 6.77145 109.892L7.32844 110.628ZM15.7762 99.3959C15.6549 99.6202 15.7385 99.9004 15.9628 100.022C16.1871 100.143 16.4672 100.059 16.5884 99.835L15.7762 99.3959ZM21.1335 86.3408C21.1805 86.0902 21.0154 85.849 20.7648 85.802C20.5142 85.755 20.273 85.92 20.226 86.1706L21.1335 86.3408ZM21.6771 72.1559C21.6657 72.4106 21.863 72.6264 22.1178 72.6377C22.3725 72.6491 22.5882 72.4518 22.5995 72.197L21.6771 72.1559ZM22.9518 58.0284C22.9575 57.7735 22.7555 57.5622 22.5006 57.5565C22.2457 57.5507 22.0344 57.7528 22.0287 58.0077L22.9518 58.0284ZM22.8121 43.8278C22.7847 44.0813 22.968 44.309 23.2215 44.3364C23.475 44.3637 23.7027 44.1804 23.7301 43.9269L22.8121 43.8278ZM26.6212 30.2056C26.7056 29.9649 26.5789 29.7015 26.3382 29.6172C26.0976 29.5328 25.8342 29.6595 25.7498 29.9001L26.6212 30.2056ZM32.8852 17.5832C32.7146 17.7727 32.7299 18.0647 32.9194 18.2353C33.1089 18.4059 33.4008 18.3906 33.5714 18.2011L32.8852 17.5832ZM44.7447 9.993C44.9743 9.8819 45.0702 9.60579 44.9592 9.37628C44.8481 9.14678 44.5719 9.05079 44.3424 9.16188L44.7447 9.993ZM57.902 4.70109C57.6525 4.7535 57.4927 4.99828 57.5451 5.24782C57.5975 5.49735 57.8423 5.65715 58.0919 5.60473L57.902 4.70109ZM1.20413 114.399C3.47719 113.264 5.51019 112.003 7.32844 110.628L6.77145 109.892C5.00098 111.231 3.01681 112.462 0.79189 113.572L1.20413 114.399ZM16.5884 99.835C18.8258 95.6963 20.2332 91.1407 21.1335 86.3408L20.226 86.1706C19.3379 90.9052 17.956 95.3637 15.7762 99.3959L16.5884 99.835ZM22.5995 72.197C22.808 67.5197 22.846 62.7466 22.9518 58.0284L22.0287 58.0077C21.9224 62.7442 21.8849 67.492 21.6771 72.1559L22.5995 72.197ZM23.7301 43.9269C24.2498 39.1114 25.1192 34.4909 26.6212 30.2056L25.7498 29.9001C24.2169 34.2737 23.3365 38.9689 22.8121 43.8278L23.7301 43.9269ZM33.5714 18.2011C36.4271 15.0292 40.0742 12.2538 44.7447 9.993L44.3424 9.16188C39.5718 11.4712 35.8262 14.3166 32.8852 17.5832L33.5714 18.2011ZM58.0919 5.60473C60.2726 5.14666 62.5911 4.75812 65.0562 4.44379L64.9394 3.52783C62.4518 3.84505 60.1088 4.23755 57.902 4.70109L58.0919 5.60473Z" fill="#333333"/>
</svg>
