<svg width="194" height="208" viewBox="0 0 194 208" fill="none" xmlns="http://www.w3.org/2000/svg">
<g clip-path="url(#clip0_160_1719)">
<path d="M103.965 4.96044C162.492 -13.4009 161.344 23.6087 153.454 44.4087C151.212 51.5811 139.109 80.988 134.805 95.3329C130.502 109.678 134.088 126.891 158.474 160.602C177.983 187.57 166.603 203.875 158.474 208.657H31.5226C30.8054 205.071 29.8012 196.751 31.5226 192.16C33.6744 186.423 32.9577 147.691 25.7853 119.002C18.6129 90.3122 30.806 27.9122 103.965 4.96044Z" fill="#F6F6F6"/>
<path d="M119.393 58.9876C121.306 60.9002 125.418 65.1559 126.566 66.8772C126.975 67.4903 128.063 67.8183 129.434 67.9649C133.451 57.9331 135.89 56.8438 136.607 57.5531L137.324 67.5945C142.345 65.4428 145.931 66.16 146.83 66.8772C147.729 67.5945 150.992 73.154 154.538 74.0497C156.69 74.5932 157.774 74.2588 158.124 75.3104C158.841 77.4622 158.124 80.0745 158.124 84.091C158.124 88.1076 154.777 91.0244 153.103 91.9807C151.11 93.1198 149.374 95.5669 154.538 104.174C160.993 114.932 161.797 130.538 160.276 133.581C158.631 136.871 151.882 143.822 147.366 148.469C145.375 152.888 141.264 161.248 145.214 169.269C148.039 175.007 152.122 192.693 155.972 193.655C159.559 194.552 165.297 200.11 161.71 206.739H105.766H34.7586C27.5862 206.739 22.6638 202.575 24.7172 200.11C28.1074 196.042 42.3939 195.82 54.853 191.713C56.1163 191.297 56.8707 190.029 56.7436 188.705C55.5643 176.417 55.9096 151.526 65.6007 134.298C78.511 111.346 107.201 114.932 112.939 109.194C118.677 103.457 117.242 90.5462 116.524 74.0497C115.951 60.8524 118.198 58.5094 119.393 58.9876Z" fill="white"/>
<path d="M137.324 67.5945C142.345 65.4428 145.931 66.16 146.83 66.8772C147.73 67.5945 150.992 73.154 154.538 74.0497C156.69 74.5932 157.774 74.2588 158.124 75.3104C158.841 77.4622 158.124 80.0745 158.124 84.091C158.124 88.1076 154.777 91.0244 153.103 91.9807C151.11 93.1198 149.374 95.5669 154.538 104.174C160.993 114.932 161.797 130.538 160.276 133.581C158.631 136.871 151.882 143.822 147.366 148.469M137.324 67.5945L136.607 57.5531C135.89 56.8438 133.451 57.9331 129.434 67.9649M137.324 67.5945C135.323 67.9024 131.915 68.23 129.434 67.9649M54.8414 198.85C68.469 195.263 91.4207 194.546 99.3103 196.698C105.622 198.419 106.676 204 105.766 206.739C84.4874 206.739 40.4966 206.739 34.7586 206.739C27.5862 206.739 22.6638 202.575 24.7172 200.11C28.1074 196.042 42.3939 195.82 54.853 191.713C56.1163 191.297 56.8707 190.029 56.7436 188.705C55.5643 176.417 55.9096 151.526 65.6007 134.298C78.511 111.346 107.201 114.932 112.939 109.194C118.677 103.457 117.242 90.5462 116.524 74.0497C115.951 60.8524 118.198 58.5094 119.393 58.9876C121.306 60.9002 125.418 65.1559 126.566 66.8772C126.975 67.4903 128.063 67.8183 129.434 67.9649M120.11 206.566C120.553 204.796 120.176 200.16 114.434 197.342C113.529 196.897 112.814 196.09 112.787 195.082C112.695 191.749 113.632 185.734 117.959 179.484C123.123 172.025 124.997 168.552 125.848 170.16C127.928 174.088 133.625 186.741 140.22 204.677C140.636 205.81 141.713 206.566 142.92 206.566H154.356C156.513 206.566 158.392 204.94 158.041 202.812C157.52 199.641 155.751 196.15 151.323 195.407C150.233 195.224 149.216 194.635 148.747 193.634C143.595 182.637 135.142 162.675 137.324 159.401C138.877 157.072 142.036 153.952 147.366 148.469M24 206.739H161.71M169.6 206.739H161.71M147.366 148.469C145.375 152.888 141.264 161.248 145.214 169.269C148.039 175.007 152.122 192.693 155.972 193.655C159.559 194.552 165.297 200.11 161.71 206.739" stroke="#333333" stroke-width="2" stroke-linecap="round"/>
</g>
<defs>
<clipPath id="clip0_160_1719">
<rect width="194" height="208" fill="white"/>
</clipPath>
</defs>
</svg>
