<svg width="86" height="26" viewBox="0 0 86 26" fill="none" xmlns="http://www.w3.org/2000/svg">
<path d="M17.0993 12.6144C17.0993 10.6657 18.7458 9.72274 18.8091 9.65988C17.8592 8.33979 16.466 8.15121 15.9594 8.08834C14.7562 7.96262 13.5529 8.77982 12.983 8.77982C12.3497 8.77982 11.3998 8.08834 10.3866 8.08834C9.05675 8.08834 7.85353 8.84268 7.15693 10.037C5.76372 12.4258 6.77699 15.946 8.10684 17.8947C8.80344 18.8376 9.56336 19.9063 10.5766 19.8434C11.5898 19.7805 11.9698 19.2148 13.173 19.2148C14.3762 19.2148 14.6928 19.8434 15.7694 19.8434C16.846 19.8434 17.5426 18.9005 18.1758 17.9576C18.9357 16.8889 19.2524 15.8203 19.2524 15.7574C19.189 15.6946 17.0993 14.9402 17.0993 12.6144Z" fill="#111F3C"/>
<path d="M31.5385 19.7175H30.1454L29.3855 17.3288H26.7257L26.0291 19.7175H24.6992L27.359 11.6084H29.0055L31.5385 19.7175ZM29.1321 16.323L28.4355 14.1857C28.3722 13.9971 28.2455 13.4314 27.9922 12.677C27.9289 12.9913 27.8023 13.5571 27.6123 14.1857L26.9157 16.323H29.1321Z" fill="#111F3C"/>
<path d="M38.3127 16.7631C38.3127 17.7689 38.0594 18.5232 37.4895 19.1518C36.9828 19.6547 36.4129 19.9061 35.653 19.9061C34.893 19.9061 34.3231 19.6547 34.0064 19.0889V22.1691H32.6766V15.883C32.6766 15.2544 32.6766 14.6258 32.6133 13.9343H33.7531L33.8165 14.8772C34.2597 14.1858 34.893 13.8086 35.7796 13.8086C36.4762 13.8086 37.0462 14.06 37.4895 14.6258C38.0594 15.1287 38.3127 15.8202 38.3127 16.7631ZM36.9828 16.7631C36.9828 16.1973 36.8562 15.6944 36.6029 15.3801C36.3496 15.003 35.9696 14.8144 35.463 14.8144C35.1463 14.8144 34.8297 14.9401 34.5764 15.1287C34.3231 15.3173 34.1331 15.6315 34.0698 15.9458C34.0064 16.1344 34.0064 16.2602 34.0064 16.323V17.3288C34.0064 17.7689 34.1331 18.0832 34.3864 18.3975C34.6397 18.7118 35.0197 18.8375 35.3996 18.8375C35.9063 18.8375 36.2862 18.6489 36.5395 18.2717C36.8562 17.8946 36.9828 17.3917 36.9828 16.7631Z" fill="#111F3C"/>
<path d="M45.09 16.7631C45.09 17.7689 44.8367 18.5232 44.2668 19.1518C43.7602 19.6547 43.1902 19.9061 42.4303 19.9061C41.6704 19.9061 41.1005 19.6547 40.7838 19.0889V22.1691H39.4539V15.883C39.4539 15.2544 39.4539 14.6258 39.3906 13.9343H40.5305L40.5938 14.8772C41.0371 14.1858 41.6704 13.8086 42.557 13.8086C43.2536 13.8086 43.8235 14.06 44.2668 14.6258C44.8367 15.1287 45.09 15.8202 45.09 16.7631ZM43.7602 16.7631C43.7602 16.1973 43.6335 15.6944 43.3802 15.3801C43.1269 15.003 42.747 14.8144 42.2403 14.8144C41.9237 14.8144 41.6071 14.9401 41.3538 15.1287C41.1005 15.3173 40.9105 15.6315 40.8471 15.9458C40.7838 16.1344 40.7838 16.2602 40.7838 16.323V17.3288C40.7838 17.7689 40.9105 18.0832 41.1638 18.3975C41.4171 18.7118 41.7971 18.8375 42.177 18.8375C42.6836 18.8375 43.0636 18.6489 43.3169 18.2717C43.6335 17.8946 43.7602 17.3917 43.7602 16.7631Z" fill="#111F3C"/>
<path d="M52.6901 17.4544C52.6901 18.1458 52.4371 18.7116 51.9936 19.1516C51.4872 19.6545 50.7273 19.8431 49.7773 19.8431C48.8907 19.8431 48.1941 19.6545 47.6875 19.3402L48.0041 18.2716C48.574 18.5859 49.2073 18.7745 49.9039 18.7745C50.4105 18.7745 50.7907 18.6487 51.0436 18.4602C51.2971 18.2087 51.4238 17.9573 51.4238 17.5801C51.4238 17.2658 51.2971 16.9515 51.107 16.7629C50.854 16.5115 50.4739 16.3229 49.9672 16.1343C48.5107 15.6314 47.8141 14.8142 47.8141 13.8084C47.8141 13.1169 48.0674 12.6141 48.574 12.174C49.0807 11.734 49.7139 11.5454 50.6006 11.5454C51.3605 11.5454 51.9302 11.6711 52.4371 11.9226L52.1203 12.9912C51.6773 12.7398 51.1704 12.6141 50.5372 12.6141C50.0939 12.6141 49.7139 12.7398 49.4606 12.9284C49.2706 13.1169 49.144 13.3684 49.144 13.6827C49.144 13.997 49.2706 14.2484 49.524 14.4999C49.7139 14.6885 50.1572 14.8771 50.7273 15.1285C51.4238 15.3799 51.9302 15.7571 52.3104 16.1343C52.5005 16.4486 52.6901 16.8886 52.6901 17.4544Z" fill="#111F3C"/>
<path d="M56.9965 14.8774H55.5401V17.7061C55.5401 18.3976 55.793 18.7748 56.3 18.7748C56.5534 18.7748 56.743 18.7748 56.8697 18.7119L56.9331 19.7177C56.6796 19.8434 56.3633 19.8434 55.9198 19.8434C55.4134 19.8434 54.9698 19.7177 54.7169 19.4034C54.4 19.0891 54.2733 18.5862 54.2733 17.8319V14.8774H53.3867V13.8716H54.2733V12.8029L55.5401 12.4258V13.8716H56.9965V14.8774Z" fill="#111F3C"/>
<path d="M63.519 16.7629C63.519 17.643 63.2655 18.3973 62.7586 18.9631C62.1888 19.5288 61.4923 19.8432 60.6057 19.8432C59.7191 19.8432 59.0226 19.5288 58.5157 18.9631C58.0093 18.3973 57.7559 17.7059 57.7559 16.8258C57.7559 15.9458 58.0093 15.1914 58.5791 14.6257C59.086 14.0599 59.8459 13.7456 60.7325 13.7456C61.6191 13.7456 62.3156 14.0599 62.822 14.6257C63.2655 15.1914 63.519 15.8829 63.519 16.7629ZM62.1255 16.8258C62.1255 16.2601 61.9987 15.82 61.7458 15.4429C61.4923 15.0028 61.0488 14.7514 60.5424 14.7514C60.036 14.7514 59.5924 15.0028 59.339 15.4429C59.086 15.82 58.9593 16.3229 58.9593 16.8258C58.9593 17.3916 59.086 17.8316 59.339 18.2088C59.5924 18.6488 60.036 18.9002 60.5424 18.9002C61.0488 18.9002 61.429 18.6488 61.7458 18.2088C61.9987 17.8316 62.1255 17.3287 62.1255 16.8258Z" fill="#111F3C"/>
<path d="M67.7613 15.0027C67.6346 15.0027 67.5079 14.9398 67.3178 14.9398C66.8747 14.9398 66.4945 15.1284 66.2411 15.4427C66.0515 15.757 65.9248 16.1342 65.9248 16.5742V19.6544H64.5946V15.6313C64.5946 14.9398 64.5946 14.3741 64.5312 13.8083H65.6713L65.7347 14.9398H65.798C65.9248 14.5627 66.1777 14.2484 66.4312 13.9969C66.748 13.8083 67.0643 13.6826 67.3811 13.6826C67.5079 13.6826 67.6346 13.6826 67.698 13.6826V15.0027H67.7613Z" fill="#111F3C"/>
<path d="M73.5863 16.5115C73.5863 16.7629 73.5863 16.9515 73.5229 17.0773H69.5969C69.5969 17.643 69.7865 18.083 70.1666 18.3973C70.483 18.6488 70.9265 18.8374 71.4329 18.8374C72.0032 18.8374 72.573 18.7745 73.0165 18.5859L73.2061 19.466C72.6363 19.7174 72.0032 19.8432 71.2433 19.8432C70.3567 19.8432 69.5969 19.5917 69.0899 19.026C68.5835 18.5231 68.3301 17.7687 68.3301 16.8887C68.3301 16.0086 68.5835 15.2543 69.0266 14.6885C69.5335 14.0599 70.23 13.7456 71.1166 13.7456C71.9398 13.7456 72.6363 14.0599 73.0165 14.6885C73.4596 15.1914 73.5863 15.82 73.5863 16.5115ZM72.3829 16.1972C72.3829 15.82 72.3195 15.5057 72.1299 15.1914C71.8765 14.8142 71.5596 14.6257 71.1166 14.6257C70.673 14.6257 70.3567 14.8142 70.1033 15.1286C69.9132 15.38 69.7865 15.7572 69.7231 16.1343H72.3829V16.1972Z" fill="#111F3C"/>
<path d="M15.1375 6.83088C15.6442 6.13941 16.0241 5.25935 15.9608 4.31641C15.2009 4.37927 14.1877 4.8193 13.681 5.5108C13.1744 6.07655 12.7312 7.01947 12.8578 7.89952C13.681 7.96238 14.5676 7.45949 15.1375 6.83088Z" fill="#111F3C"/>
<path d="M27.5327 7.18916V6.67255H28.0726C28.3027 6.67255 28.4891 6.6118 28.6319 6.49025C28.7767 6.3687 28.849 6.21215 28.849 6.0206C28.849 5.8291 28.7813 5.67808 28.6459 5.5676C28.5123 5.45706 28.3305 5.40184 28.1004 5.40184C27.8666 5.40184 27.6774 5.45892 27.5327 5.57313C27.3899 5.68542 27.3091 5.84107 27.2906 6.03996H26.7006C26.721 5.68266 26.8583 5.40089 27.1125 5.19465C27.3667 4.98838 27.7025 4.88525 28.1199 4.88525C28.5151 4.88525 28.8379 4.98562 29.0884 5.18635C29.3388 5.38525 29.464 5.64217 29.464 5.95708C29.464 6.17991 29.3945 6.37604 29.2553 6.54547C29.118 6.71308 28.9381 6.82356 28.7154 6.87697V6.8991C28.9845 6.93224 29.1969 7.03719 29.3527 7.21401C29.5086 7.39082 29.5865 7.61456 29.5865 7.88527C29.5865 8.22044 29.4455 8.50131 29.1635 8.72781C28.8815 8.9525 28.5299 9.06484 28.1088 9.06484C27.6728 9.06484 27.3166 8.95803 27.0402 8.7444C26.7637 8.53078 26.6162 8.2481 26.5977 7.89633H27.1988C27.2173 8.09155 27.3082 8.2481 27.4715 8.36593C27.6366 8.48199 27.8481 8.53998 28.106 8.53998C28.3565 8.53998 28.5587 8.47646 28.7127 8.34938C28.8685 8.2223 28.9464 8.05745 28.9464 7.85489C28.9464 7.64679 28.8704 7.48381 28.7182 7.36593C28.5679 7.24805 28.3583 7.18916 28.0893 7.18916H27.5327Z" fill="#111F3C"/>
<path d="M31.1996 8.54569C31.4111 8.54569 31.5883 8.48217 31.7312 8.35509C31.8758 8.22615 31.9482 8.06779 31.9482 7.87991V7.65065L31.2274 7.69485C31.0475 7.70772 30.9083 7.75193 30.81 7.82746C30.7135 7.90114 30.6653 8.00056 30.6653 8.12578C30.6653 8.25286 30.7135 8.35509 30.81 8.43244C30.9083 8.50792 31.0382 8.54569 31.1996 8.54569ZM31.0326 9.01805C30.745 9.01805 30.5103 8.93704 30.3285 8.77496C30.1486 8.61293 30.0586 8.40206 30.0586 8.14237C30.0586 7.88821 30.1532 7.68655 30.3425 7.5374C30.5317 7.38638 30.7998 7.30164 31.1467 7.28323L31.9482 7.23626V7.01253C31.9482 6.85045 31.8963 6.72432 31.7924 6.63405C31.6885 6.54197 31.5447 6.49596 31.361 6.49596C31.1903 6.49596 31.0511 6.53368 30.9436 6.60921C30.8378 6.68469 30.771 6.78874 30.7432 6.92135H30.1755C30.1922 6.65246 30.3091 6.43335 30.5261 6.26388C30.7432 6.09445 31.0289 6.00977 31.3833 6.00977C31.7376 6.00977 32.0196 6.09631 32.2293 6.26941C32.4408 6.44255 32.5465 6.67459 32.5465 6.96556V8.96837H31.9705V8.49042H31.9566C31.8731 8.65064 31.746 8.77868 31.5753 8.87443C31.4064 8.97018 31.2255 9.01805 31.0326 9.01805Z" fill="#111F3C"/>
<path d="M35.1741 6.53443H33.8327V8.96816H33.2344V6.06201H35.1741V6.53443Z" fill="#111F3C"/>
<path d="M37.2633 6.01514C37.6362 6.01514 37.9349 6.15046 38.1594 6.42122C38.3839 6.69193 38.4961 7.05657 38.4961 7.51511C38.4961 7.97369 38.3848 8.33924 38.1622 8.61181C37.9396 8.88257 37.6436 9.01789 37.2745 9.01789C37.0667 9.01789 36.8821 8.97092 36.7206 8.87703C36.5611 8.78309 36.4387 8.6542 36.3533 8.49026H36.3394V9.92953H35.7383V6.06206H36.3199V6.56208H36.331C36.4182 6.39266 36.5435 6.25914 36.7067 6.16153C36.87 6.06392 37.0555 6.01514 37.2633 6.01514ZM37.1047 8.51239C37.3421 8.51239 37.5305 8.42308 37.6696 8.2444C37.8088 8.06396 37.8783 7.82086 37.8783 7.51511C37.8783 7.21126 37.8088 6.96907 37.6696 6.78858C37.5305 6.60814 37.3421 6.51788 37.1047 6.51788C36.8746 6.51788 36.6891 6.60905 36.5481 6.79135C36.4071 6.9737 36.3366 7.21493 36.3366 7.51511C36.3366 7.81714 36.4062 8.05934 36.5453 8.24163C36.6863 8.42212 36.8728 8.51239 37.1047 8.51239Z" fill="#111F3C"/>
<path d="M39.2843 10.051C39.1711 10.051 39.0895 10.0464 39.0394 10.0372V9.55378C39.0691 9.56117 39.134 9.56484 39.2342 9.56484C39.3752 9.56484 39.4856 9.53261 39.5654 9.46814C39.6451 9.40553 39.7083 9.29962 39.7546 9.15046C39.7546 9.1486 39.7639 9.11823 39.7824 9.05929L39.8075 8.97088L38.75 6.06201H39.4012L40.1442 8.4267H40.1526L40.8956 6.06201H41.5301L40.4309 9.12009C40.3065 9.47181 40.1609 9.71491 39.9939 9.84938C39.827 9.9838 39.5904 10.051 39.2843 10.051Z" fill="#111F3C"/>
<path d="M43.0239 9.02359C42.6807 9.02359 42.3987 8.94534 42.1779 8.78879C41.959 8.63224 41.8365 8.42047 41.8105 8.15344H42.4033C42.433 8.27865 42.5017 8.37536 42.6092 8.4435C42.7169 8.50978 42.8551 8.54292 43.0239 8.54292C43.2132 8.54292 43.3597 8.50335 43.4636 8.42414C43.5694 8.34494 43.6223 8.23998 43.6223 8.10923C43.6223 7.82746 43.4237 7.68655 43.0267 7.68655H42.5981V7.24733H43.0183C43.3597 7.24733 43.5304 7.12025 43.5304 6.86614C43.5304 6.75007 43.4877 6.65799 43.4024 6.58985C43.3171 6.5199 43.1918 6.4849 43.0267 6.4849C42.8653 6.4849 42.7336 6.51713 42.6315 6.5816C42.5295 6.64602 42.4683 6.73534 42.4479 6.84954H41.8718C41.9033 6.58985 42.0212 6.38542 42.2252 6.23627C42.4312 6.08525 42.6974 6.00977 43.0239 6.00977C43.3727 6.00977 43.6417 6.08158 43.831 6.2252C44.0221 6.36702 44.1176 6.56134 44.1176 6.8081C44.1176 6.95726 44.0749 7.08897 43.9896 7.20312C43.9042 7.31733 43.7911 7.39191 43.6501 7.42691V7.44899C43.8356 7.49133 43.9766 7.56963 44.0731 7.68379C44.1714 7.79799 44.2205 7.93885 44.2205 8.10647C44.2205 8.3827 44.1111 8.60463 43.8922 8.77219C43.6751 8.9398 43.3857 9.02359 43.0239 9.02359Z" fill="#111F3C"/>
<path d="M45.3994 8.96816H44.8066V6.06201H45.3994V8.09796H45.4217L46.7741 6.06201H47.367V8.96816H46.7741V6.92668H46.7519L45.3994 8.96816Z" fill="#111F3C"/>
<path d="M50.2962 6.06201V6.53443H49.378V8.96816H48.7797V6.53443H47.8613V6.06201H50.2962Z" fill="#111F3C"/>
<path d="M52.4741 6.70038C52.3423 6.56038 52.1724 6.49043 51.9647 6.49043C51.757 6.49043 51.5845 6.56134 51.4472 6.70315C51.3099 6.84311 51.2335 7.0245 51.2189 7.24733H52.6828C52.6752 7.02264 52.6053 6.84034 52.4741 6.70038ZM52.6798 8.11476H53.2506C53.2078 8.3818 53.0705 8.6 52.8382 8.76943C52.6064 8.9389 52.3237 9.02359 51.9898 9.02359C51.5608 9.02359 51.2234 8.89007 50.9765 8.62303C50.7316 8.35414 50.6094 7.98949 50.6094 7.5291C50.6094 7.07237 50.7316 6.70496 50.9765 6.42686C51.2234 6.14881 51.5528 6.00977 51.9647 6.00977C52.369 6.00977 52.6898 6.14142 52.9277 6.40479C53.1651 6.66629 53.2837 7.01806 53.2837 7.46005V7.66448H51.2159V7.70038C51.2159 7.95454 51.2873 8.15801 51.4301 8.31089C51.5729 8.46372 51.764 8.54016 52.0034 8.54016C52.1724 8.54016 52.3172 8.50149 52.4379 8.42414C52.5581 8.3468 52.639 8.24365 52.6798 8.11476Z" fill="#111F3C"/>
<path d="M56.2783 6.49575H55.6632V7.25819H56.2199C56.5594 7.25819 56.7293 7.12925 56.7293 6.87141C56.7293 6.75173 56.6901 6.65965 56.6122 6.59518C56.5342 6.52889 56.4231 6.49575 56.2783 6.49575ZM56.2586 7.67533H55.6632V8.53442H56.3255C56.4965 8.53442 56.6263 8.49851 56.7153 8.4267C56.8043 8.35303 56.849 8.24621 56.849 8.10626C56.849 7.81896 56.6519 7.67533 56.2586 7.67533ZM55.0703 8.96816V6.06201H56.401C56.6866 6.06201 56.9099 6.12834 57.0713 6.26095C57.2348 6.39171 57.3162 6.57214 57.3162 6.80237C57.3162 6.95338 57.2679 7.08967 57.1714 7.21122C57.0768 7.3309 56.9592 7.40367 56.8184 7.42947V7.45155C57.0074 7.47735 57.1598 7.55192 57.2745 7.67533C57.3896 7.79688 57.447 7.94881 57.447 8.1311C57.447 8.38712 57.3544 8.59059 57.1689 8.74161C56.9853 8.89263 56.7349 8.96816 56.4176 8.96816H55.0703Z" fill="#111F3C"/>
<rect x="0.251445" y="0.251445" width="84.9884" height="25.1445" rx="3.77168" stroke="#111F3C" stroke-width="0.50289"/>
</svg>
