<svg width="95" height="17" viewBox="0 0 95 17" fill="none" xmlns="http://www.w3.org/2000/svg">
<path d="M45.4765 7.2721L45.6707 6.85321L45.4765 7.2721ZM94.4376 11.1468C94.5189 10.9051 94.3889 10.6433 94.1473 10.562L90.2093 9.23633C89.9676 9.15499 89.7058 9.28494 89.6244 9.5266C89.5431 9.76825 89.673 10.0301 89.9147 10.1114L93.4152 11.2898L92.2368 14.7902C92.1555 15.0319 92.2854 15.2937 92.5271 15.3751C92.7687 15.4564 93.0306 15.3265 93.1119 15.0848L94.4376 11.1468ZM6.07738 5.29245C6.30216 5.17207 6.3868 4.89227 6.26643 4.6675C6.14606 4.44272 5.86626 4.35808 5.64148 4.47845L6.07738 5.29245ZM16.9962 1.1183C16.7428 1.14626 16.56 1.37439 16.588 1.62783C16.6159 1.88127 16.8441 2.06406 17.0975 2.03609L16.9962 1.1183ZM28.6713 2.4097C28.923 2.45033 29.16 2.27922 29.2007 2.02749C29.2413 1.77577 29.0702 1.53877 28.8185 1.49813L28.6713 2.4097ZM40.2148 4.57109C39.9759 4.48213 39.71 4.60372 39.6211 4.84268C39.5321 5.08163 39.6537 5.34747 39.8927 5.43643L40.2148 4.57109ZM51.118 10.2302C51.3543 10.326 51.6235 10.2121 51.7193 9.97581C51.8151 9.73951 51.7012 9.47029 51.4649 9.37448L51.118 10.2302ZM63.4137 13.3629C63.1665 13.3003 62.9154 13.4499 62.8528 13.697C62.7901 13.9442 62.9397 14.1954 63.1869 14.258L63.4137 13.3629ZM75.7953 16.0768C76.0503 16.0812 76.2605 15.8781 76.2649 15.6232C76.2693 15.3682 76.0662 15.158 75.8113 15.1536L75.7953 16.0768ZM88.0845 13.1918C87.8451 13.2797 87.7224 13.545 87.8104 13.7844C87.8983 14.0237 88.1637 14.1464 88.403 14.0585L88.0845 13.1918ZM1.50215 8.67271C2.50176 7.59288 4.03097 6.38833 6.07738 5.29245L5.64148 4.47845C3.52029 5.61437 1.90489 6.87841 0.82455 8.04544L1.50215 8.67271ZM17.0975 2.03609C20.4786 1.66302 24.3431 1.71097 28.6713 2.4097L28.8185 1.49813C24.4108 0.786586 20.4628 0.735797 16.9962 1.1183L17.0975 2.03609ZM39.8927 5.43643C41.6361 6.08553 43.433 6.83389 45.2824 7.69098L45.6707 6.85321C43.8002 5.9864 41.9813 5.22878 40.2148 4.57109L39.8927 5.43643ZM45.2824 7.69098C47.3071 8.62927 49.251 9.47318 51.118 10.2302L51.4649 9.37448C49.6126 8.6234 47.6824 7.78551 45.6707 6.85321L45.2824 7.69098ZM63.1869 14.258C68.0452 15.4892 72.2084 16.0148 75.7953 16.0768L75.8113 15.1536C72.3029 15.093 68.2107 14.5785 63.4137 13.3629L63.1869 14.258ZM88.403 14.0585C90.818 13.1709 92.7056 12.1574 94.2052 11.4131L93.7947 10.586C92.2689 11.3433 90.4396 12.3262 88.0845 13.1918L88.403 14.0585Z" fill="#333333"/>
</svg>
