<svg width="198" height="208" viewBox="0 0 198 208" fill="none" xmlns="http://www.w3.org/2000/svg">
<g clip-path="url(#clip0_160_1725)">
<path d="M102.295 4.96044C43.7682 -13.4009 44.9158 23.6087 52.8055 44.4087C55.0482 51.5811 67.1509 80.988 71.4544 95.3329C75.7578 109.678 72.1716 126.891 47.7854 160.602C28.2764 187.57 39.6567 203.875 47.7854 208.657H174.737C175.454 205.071 176.459 196.751 174.737 192.16C172.585 186.423 173.302 147.691 180.474 119.002C187.647 90.3122 175.454 27.9122 102.295 4.96044Z" fill="#F6F6F6"/>
<path d="M49 16L60.5 13L67.5 15L76.5 19.5L83.5 28L89 39L92.5 49L97 67.5L99.5 80.5L106 91L119.5 107L130 118L135 125L139 136L140.5 152L141 168L142.5 177.5L145 183.5L150.5 191.5L160 199.5L166.5 201.5L189.5 203L181.5 205L160.5 206L151 204L142.5 199L136 192L135 194L126 203L121.254 206.5H72V203.5L75.5 199.5L85 196.5L97 195.5L94 191L90 184.5L87 174L83.5 171.5L79 168.5L75.5 167L74.5 171.5L68 191.5L62 206.5H45.5L46 202L49 199L54 196.5L55.5 186.5L59 170L61 156.5L60 152L55.5 134.5L54 121.5L54.5 108L57 95L59.5 78.5L60.5 62.5H56L54.5 61L52.5 53H48L39 52L30.5 50L25.5 46L21.5 37.5L22.5 33.5L31.5 32L40.5 28L43 22L49 16Z" fill="white"/>
<path d="M53.2695 54.5647C48.1054 49.9744 31.1968 53.3688 27.6405 48.3481C17.886 34.5771 20.4689 32.8132 25.2978 32.3302C36.7736 31.1826 40.1207 28.9831 40.3598 28.0268C43.2288 17.1247 52 14.7206 56 13.9205C63.5 12.4205 69.3924 15.2915 72.5 16.9205C89.5 25.4205 97.0213 65.3233 99.173 77.5164C101.325 89.7095 117.821 104.772 130.014 118.399C142.207 132.027 140.056 152.11 140.773 167.172C141.49 182.234 148.861 191.902 159 198.921C166.459 204.085 195.476 201.838 190.98 203.751C185.242 204.707 171.041 206.476 160.139 205.903C149.236 205.329 139.339 196.579 135.752 192.275C131.736 200.308 121.5 206.62 117.821 206.62H72.7219C71.8966 206.62 71.2276 205.915 71.4351 205.116C73.6172 196.712 89.5948 195.409 97.7385 195.861C89.8488 187.972 89.1316 180.082 87.6971 175.779C86.2626 171.475 84.1109 172.91 79.0902 168.606C75.0737 165.163 74.5477 168.128 74.7868 170.041C72.1271 181.211 65.9743 196.944 62.6146 204.894C62.1695 205.947 61.1364 206.62 59.9929 206.62H47.8043C46.1172 206.62 44.7598 205.136 45.4163 203.582C46.9971 199.84 50.5825 197.728 53.0339 196.867C53.5996 196.668 54.0296 196.186 54.1027 195.591C54.7013 190.715 56.3362 180.191 59.0075 170.041C61.8764 159.139 60.2029 151.631 59.0075 149.241C56.1385 141.112 51.4047 120.121 55.4213 101.185C59.4378 82.2502 60.442 67.2889 60.442 62.1752M62.5937 21.5716C58.5293 32.0911 51.2613 54.7081 54.704 61.0199C56.0078 63.4102 58.3217 62.0019 60.442 62.1752M81.9592 39.5026C81.0311 58.9926 69.4072 62.908 60.442 62.1752M36.0558 206.62H196" stroke="#333333" stroke-width="2.15172" stroke-linecap="round"/>
</g>
<defs>
<clipPath id="clip0_160_1725">
<rect width="198" height="208" fill="white"/>
</clipPath>
</defs>
</svg>
