<svg width="86" height="26" viewBox="0 0 86 26" fill="none" xmlns="http://www.w3.org/2000/svg">
<path d="M43.6178 13.8715C42.0979 13.8715 40.8947 15.003 40.8947 16.5745C40.8947 18.0832 42.0979 19.2775 43.6178 19.2775C45.1376 19.2775 46.3408 18.146 46.3408 16.5745C46.3408 14.9401 45.1376 13.8715 43.6178 13.8715ZM43.6178 18.146C42.7945 18.146 42.0979 17.4546 42.0979 16.5116C42.0979 15.5687 42.7945 14.8773 43.6178 14.8773C44.441 14.8773 45.1376 15.5059 45.1376 16.5116C45.1376 17.4546 44.441 18.146 43.6178 18.146ZM37.7284 13.8715C36.2085 13.8715 35.0053 15.003 35.0053 16.5745C35.0053 18.0832 36.2085 19.2775 37.7284 19.2775C39.2482 19.2775 40.4514 18.146 40.4514 16.5745C40.4514 14.9401 39.2482 13.8715 37.7284 13.8715ZM37.7284 18.146C36.9051 18.146 36.2085 17.4546 36.2085 16.5116C36.2085 15.5687 36.9051 14.8773 37.7284 14.8773C38.5516 14.8773 39.2482 15.5059 39.2482 16.5116C39.2482 17.4546 38.5516 18.146 37.7284 18.146ZM30.6991 14.6886V15.8202H33.4222C33.3588 16.4488 33.1055 16.9517 32.7889 17.266C32.4089 17.6431 31.7756 18.0832 30.6991 18.0832C28.9893 18.0832 27.7227 16.7631 27.7227 15.0658C27.7227 13.3686 29.0526 12.0485 30.6991 12.0485C31.5856 12.0485 32.2822 12.4257 32.7889 12.8657L33.6121 12.0485C32.9155 11.4199 32.0289 10.917 30.7624 10.917C28.4827 10.917 26.5195 12.8028 26.5195 15.0658C26.5195 17.3288 28.4827 19.2147 30.7624 19.2147C32.0289 19.2147 32.9155 18.8375 33.6755 18.0203C34.4354 17.266 34.6887 16.1973 34.6887 15.3801C34.6887 15.1287 34.6887 14.8772 34.6254 14.6886H30.6991ZM59.4496 15.5687C59.1961 14.9401 58.563 13.8715 57.17 13.8715C55.7765 13.8715 54.6364 14.9401 54.6364 16.5745C54.6364 18.0832 55.7765 19.2775 57.2962 19.2775C58.4996 19.2775 59.2595 18.5232 59.5129 18.0832L58.6264 17.4546C58.3095 17.8946 57.9298 18.2089 57.2962 18.2089C56.6631 18.2089 56.2834 17.9575 55.9666 17.3917L59.5763 15.883L59.4496 15.5687ZM55.7765 16.4488C55.7765 15.443 56.5997 14.8773 57.17 14.8773C57.613 14.8773 58.0561 15.1287 58.1828 15.443L55.7765 16.4488ZM52.8004 19.0261H54.0033V11.1684H52.8004V19.0261ZM50.9004 14.4372C50.5837 14.1229 50.0771 13.8086 49.4439 13.8086C48.114 13.8086 46.8475 15.003 46.8475 16.5116C46.8475 18.0203 48.0507 19.1518 49.4439 19.1518C50.0771 19.1518 50.5837 18.8375 50.8371 18.5232H50.9004V18.9004C50.9004 19.9062 50.3304 20.4719 49.4439 20.4719C48.7473 20.4719 48.2407 19.969 48.114 19.529L47.1008 19.969C47.4174 20.6605 48.1773 21.5405 49.5072 21.5405C50.9004 21.5405 52.0405 20.7234 52.0405 18.7747V13.9972H50.9004V14.4372ZM49.5072 18.146C48.6839 18.146 47.9874 17.4546 47.9874 16.5116C47.9874 15.5687 48.6839 14.8773 49.5072 14.8773C50.3304 14.8773 50.9638 15.5687 50.9638 16.5116C50.9638 17.4546 50.3304 18.146 49.5072 18.146ZM64.9587 11.1684H62.1094V19.0261H63.3123V16.0716H64.9587C66.2889 16.0716 67.5552 15.1287 67.5552 13.62C67.5552 12.1114 66.2889 11.1684 64.9587 11.1684ZM65.0221 14.9401H63.3123V12.2371H65.0221C65.9087 12.2371 66.4156 12.9914 66.4156 13.5572C66.3523 14.2486 65.8453 14.9401 65.0221 14.9401ZM72.305 13.8086C71.4184 13.8086 70.5318 14.1857 70.215 15.003L71.2916 15.443C71.5451 15.003 71.9248 14.8773 72.3683 14.8773C73.0015 14.8773 73.5712 15.2544 73.6346 15.883V15.9459C73.4445 15.8201 72.9381 15.6316 72.4317 15.6316C71.2916 15.6316 70.1516 16.2602 70.1516 17.3917C70.1516 18.4603 71.1015 19.1518 72.1149 19.1518C72.9381 19.1518 73.3183 18.7747 73.6346 18.3975H73.698V19.0261H74.838V16.0088C74.7113 14.6258 73.6346 13.8086 72.305 13.8086ZM72.1782 18.146C71.7981 18.146 71.2283 17.9575 71.2283 17.4546C71.2283 16.826 71.9248 16.6374 72.4951 16.6374C73.0015 16.6374 73.2549 16.763 73.5712 16.8888C73.4445 17.6431 72.8114 18.146 72.1782 18.146ZM78.8275 13.9972L77.4978 17.3917H77.4344L76.0409 13.9972H74.7747L76.8642 18.7747L75.6613 21.4148H76.8642L80.0942 13.9972H78.8275ZM68.1888 19.0261H69.3917V11.1684H68.1888V19.0261Z" fill="#111F3C"/>
<path d="M7.07834 4.88184C6.8884 5.07044 6.76172 5.38475 6.76172 5.76192V19.6543C6.76172 20.0314 6.8884 20.3457 7.07834 20.5343L7.1417 20.5972L14.9942 12.8024V12.7395V12.6767L7.07834 4.88184Z" fill="url(#paint0_linear_165_2135)"/>
<path d="M17.5906 15.4428L14.9941 12.8655V12.7398V12.6769L17.5906 10.0996L17.6539 10.1625L20.7569 11.9226C21.6435 12.4255 21.6435 13.2427 20.7569 13.7456L17.5906 15.4428Z" fill="url(#paint1_linear_165_2135)"/>
<path d="M17.6537 15.3799L14.994 12.7397L7.07812 20.5974C7.39474 20.9117 7.83804 20.9117 8.40797 20.6603L17.6537 15.3799Z" fill="url(#paint2_linear_165_2135)"/>
<path d="M17.6537 10.0994L8.40797 4.88193C7.83804 4.56763 7.39474 4.63049 7.07812 4.9448L14.994 12.7396L17.6537 10.0994Z" fill="url(#paint3_linear_165_2135)"/>
<path opacity="0.2" d="M17.5904 15.3169L8.40797 20.4715C7.90136 20.7858 7.45806 20.723 7.14144 20.4715L7.07812 20.5344L7.14144 20.5972C7.45806 20.8487 7.90136 20.9115 8.40797 20.5972L17.5904 15.3169Z" fill="black"/>
<path opacity="0.12" d="M7.07948 20.4719C6.88949 20.2833 6.82617 19.969 6.82617 19.5918V19.6547C6.82617 20.0318 6.9528 20.3461 7.14279 20.5347V20.4719H7.07948Z" fill="black"/>
<path opacity="0.12" d="M20.7562 13.5569L17.5898 15.317L17.6532 15.3799L20.7562 13.6198C21.1995 13.3684 21.3895 13.0541 21.3895 12.7397C21.3895 13.0541 21.1362 13.3055 20.7562 13.5569Z" fill="black"/>
<path opacity="0.25" d="M8.40932 4.94466L20.7581 11.9223C21.138 12.1737 21.3914 12.4251 21.3914 12.7395C21.3914 12.4251 21.2014 12.1108 20.7581 11.8594L8.40932 4.8818C7.52278 4.37891 6.82617 4.81894 6.82617 5.82471V5.88757C6.82617 4.8818 7.52278 4.44177 8.40932 4.94466Z" fill="#111F3C"/>
<path d="M27.1523 9.15677H26.709V7.89954H27.089C27.4056 7.6481 27.5956 7.14521 27.5956 6.45373V4.56787H30.1286V7.89954H30.5719V9.15677H30.1286V8.33957H27.2156V9.15677H27.1523ZM28.0388 6.45373C28.0388 7.01949 27.9122 7.52238 27.6589 7.89954H29.5587V5.07079H27.9755V6.45373H28.0388Z" fill="#111F3C" stroke="#111F3C" stroke-width="0.100578" stroke-miterlimit="10"/>
<path d="M34.3095 7.83656C33.9295 8.21372 33.4862 8.40231 32.9163 8.40231C32.3463 8.40231 31.903 8.21372 31.5231 7.83656C31.1431 7.45939 30.9531 7.01936 30.9531 6.45361C30.9531 5.88786 31.1431 5.44783 31.5231 5.07066C31.903 4.69347 32.3463 4.50488 32.9163 4.50488C33.4862 4.50488 33.9295 4.69347 34.3095 5.07066C34.6894 5.44783 34.8794 5.88786 34.8794 6.45361C34.8794 7.01936 34.6894 7.45939 34.3095 7.83656ZM31.903 7.52225C32.1563 7.77369 32.5363 7.96228 32.9163 7.96228C33.2962 7.96228 33.6762 7.83656 33.9295 7.52225C34.1828 7.2708 34.3728 6.89364 34.3728 6.45361C34.3728 6.01358 34.2462 5.63641 33.9295 5.38497C33.6762 5.13352 33.2962 4.94491 32.9163 4.94491C32.5363 4.94491 32.1563 5.07066 31.903 5.38497C31.6497 5.63641 31.4597 6.01358 31.4597 6.45361C31.4597 6.89364 31.5864 7.2708 31.903 7.52225Z" fill="#111F3C" stroke="#111F3C" stroke-width="0.100578" stroke-miterlimit="10"/>
<path d="M37.3499 8.40231C36.7799 8.40231 36.3366 8.21372 35.9566 7.83656C35.5767 7.45939 35.3867 7.01936 35.3867 6.45361C35.3867 5.88786 35.5767 5.44783 35.9566 5.07066C36.3366 4.69347 36.7799 4.50488 37.3499 4.50488C37.9198 4.50488 38.3631 4.69347 38.743 5.13352L38.4264 5.44783C38.1731 5.13352 37.7931 4.94491 37.3499 4.94491C36.9066 4.94491 36.5899 5.07066 36.2733 5.38497C35.9566 5.63641 35.83 6.01358 35.83 6.45361C35.83 6.89364 35.9566 7.2708 36.2733 7.52225C36.5266 7.77369 36.9066 7.96228 37.3499 7.96228C37.7931 7.96228 38.1731 7.77369 38.4897 7.39653L38.8063 7.71083C38.6164 7.89942 38.4264 8.088 38.1731 8.21372C37.9198 8.33945 37.6665 8.40231 37.3499 8.40231Z" fill="#111F3C" stroke="#111F3C" stroke-width="0.100578" stroke-miterlimit="10"/>
<path d="M40.8312 8.33957H40.3246V5.0079H39.248V4.56787H41.8445V5.0079H40.7679V8.33957H40.8312Z" fill="#111F3C" stroke="#111F3C" stroke-width="0.100578" stroke-miterlimit="10"/>
<path d="M45.2018 4.56787L43.7453 7.77382C43.5553 8.21385 43.2386 8.46529 42.8587 8.46529C42.732 8.46529 42.6054 8.46529 42.4787 8.40243L42.6054 7.9624C42.6687 8.02527 42.7953 8.02527 42.8587 8.02527C42.9853 8.02527 43.0487 8.02527 43.112 7.9624C43.1753 7.89954 43.2386 7.83668 43.302 7.71096L43.4286 7.39665L42.1621 4.63073H42.732L43.6819 6.76804L44.5685 4.63073H45.2018V4.56787Z" fill="#111F3C" stroke="#111F3C" stroke-width="0.100578" stroke-miterlimit="10"/>
<path d="M45.7715 8.33957V4.56787H48.4945V8.33957H47.9879V5.0079H46.2148V8.33957H45.7715Z" fill="#111F3C" stroke="#111F3C" stroke-width="0.100578" stroke-miterlimit="10"/>
<path d="M49.3809 8.33957V4.56787H49.8875V6.20229H51.7873V4.56787H52.2937V8.33957H51.7873V6.64232H49.8875V8.33957H49.3809Z" fill="#111F3C" stroke="#111F3C" stroke-width="0.100578" stroke-miterlimit="10"/>
<path d="M56.284 7.83656C55.9038 8.21372 55.4608 8.40231 54.8905 8.40231C54.3207 8.40231 53.8772 8.21372 53.4975 7.83656C53.1173 7.45939 52.9277 7.01936 52.9277 6.45361C52.9277 5.88786 53.1173 5.44783 53.4975 5.07066C53.8772 4.69347 54.3207 4.50488 54.8905 4.50488C55.4608 4.50488 55.9038 4.69347 56.284 5.07066C56.6637 5.44783 56.8538 5.88786 56.8538 6.45361C56.7904 7.01936 56.6003 7.45939 56.284 7.83656ZM53.8143 7.52225C54.0673 7.77369 54.4475 7.96228 54.8272 7.96228C55.2073 7.96228 55.587 7.83656 55.8405 7.52225C56.0939 7.2708 56.284 6.89364 56.284 6.45361C56.284 6.01358 56.1573 5.63641 55.8405 5.38497C55.587 5.13352 55.2073 4.94491 54.8272 4.94491C54.4475 4.94491 54.0673 5.07066 53.8143 5.38497C53.5609 5.63641 53.3708 6.01358 53.3708 6.45361C53.3708 6.89364 53.5609 7.2708 53.8143 7.52225Z" fill="#111F3C" stroke="#111F3C" stroke-width="0.100578" stroke-miterlimit="10"/>
<path d="M58.8164 8.33957V4.56787H60.2094C60.5262 4.56787 60.7792 4.69359 60.9693 4.88218C61.1594 5.07079 61.2861 5.32223 61.2861 5.63654C61.2861 5.82512 61.2227 5.95084 61.1594 6.13943C61.096 6.26515 60.9693 6.39087 60.7792 6.45373C60.9693 6.5166 61.096 6.64232 61.2227 6.76804C61.3495 6.89376 61.4128 7.08235 61.4128 7.33379C61.4128 7.6481 61.2861 7.89954 61.096 8.08813C60.8426 8.27671 60.5891 8.40243 60.2728 8.40243H58.8164V8.33957ZM59.3228 6.20229H60.2094C60.3995 6.20229 60.5262 6.13943 60.6525 6.01371C60.7792 5.88798 60.8426 5.76226 60.8426 5.63654C60.8426 5.51082 60.7792 5.38509 60.6525 5.25937C60.5262 5.13365 60.3995 5.07079 60.2094 5.07079H59.3228V6.20229ZM59.3228 7.89954H60.3361C60.5262 7.89954 60.6525 7.83668 60.7792 7.71096C60.9059 7.58524 60.9693 7.45951 60.9693 7.27093C60.9693 7.14521 60.9059 6.95662 60.7792 6.8309C60.6525 6.70518 60.5262 6.64232 60.3361 6.64232H59.3862V7.89954H59.3228Z" fill="#111F3C" stroke="#111F3C" stroke-width="0.100578" stroke-miterlimit="10"/>
<rect x="0.743633" y="0.251445" width="84.9884" height="25.1445" rx="3.77168" stroke="#111F3C" stroke-width="0.50289"/>
<defs>
<linearGradient id="paint0_linear_165_2135" x1="14.2974" y1="5.64228" x2="3.74809" y2="16.2698" gradientUnits="userSpaceOnUse">
<stop stop-color="#00A0FF"/>
<stop offset="0.00657445" stop-color="#00A1FF"/>
<stop offset="0.2601" stop-color="#00BEFF"/>
<stop offset="0.5122" stop-color="#00D2FF"/>
<stop offset="0.7604" stop-color="#00DFFF"/>
<stop offset="1" stop-color="#00E3FF"/>
</linearGradient>
<linearGradient id="paint1_linear_165_2135" x1="21.9186" y1="12.7406" x2="6.59542" y2="12.7406" gradientUnits="userSpaceOnUse">
<stop stop-color="#FFE000"/>
<stop offset="0.4087" stop-color="#FFBD00"/>
<stop offset="0.7754" stop-color="#FFA500"/>
<stop offset="1" stop-color="#FF9C00"/>
</linearGradient>
<linearGradient id="paint2_linear_165_2135" x1="16.2143" y1="14.1831" x2="1.90853" y2="28.5948" gradientUnits="userSpaceOnUse">
<stop stop-color="#FF3A44"/>
<stop offset="1" stop-color="#C31162"/>
</linearGradient>
<linearGradient id="paint3_linear_165_2135" x1="5.11328" y1="0.2781" x2="11.5014" y2="6.71353" gradientUnits="userSpaceOnUse">
<stop stop-color="#32A071"/>
<stop offset="0.0685" stop-color="#2DA771"/>
<stop offset="0.4762" stop-color="#15CF74"/>
<stop offset="0.8009" stop-color="#06E775"/>
<stop offset="1" stop-color="#00F076"/>
</linearGradient>
</defs>
</svg>
